<svg width="2367" height="2367" viewBox="0 0 2367 2367" fill="none" xmlns="http://www.w3.org/2000/svg">
<g clip-path="url(#clip0_6127_672)">
<rect width="2367" height="2367" fill="white"/>
<rect width="2367" height="2367" fill="url(#paint0_linear_6127_672)"/>
<path fill-rule="evenodd" clip-rule="evenodd" d="M1481.77 1375.69L1473.45 1375.04C1473.97 1368.35 1474.23 1361.58 1474.23 1354.75C1474.23 1347.92 1473.97 1341.15 1473.45 1334.46L1481.77 1333.81C1482.3 1340.72 1482.57 1347.7 1482.57 1354.75C1482.57 1361.8 1482.3 1368.78 1481.77 1375.69ZM1475.33 1292.47L1467.21 1294.43C1464.06 1281.16 1459.9 1268.29 1454.81 1255.9L1462.52 1252.68C1467.78 1265.47 1472.08 1278.77 1475.33 1292.47ZM1443.66 1215.4L1436.55 1219.81C1429.51 1208.25 1421.6 1197.3 1412.91 1187.04L1419.25 1181.57C1428.23 1192.16 1436.4 1203.47 1443.66 1215.4ZM1389.92 1151.97L1384.5 1158.37C1374.33 1149.6 1363.47 1141.62 1352.01 1134.53L1356.38 1127.35C1368.21 1134.68 1379.42 1142.92 1389.92 1151.97ZM1319.44 1108.32L1316.24 1116.1C1303.96 1110.96 1291.2 1106.76 1278.05 1103.59L1279.99 1095.4C1293.58 1098.68 1306.76 1103.02 1319.44 1108.32ZM1239.02 1088.9L1238.37 1097.29C1231.74 1096.77 1225.03 1096.51 1218.26 1096.51C1211.49 1096.51 1204.78 1096.77 1198.15 1097.29L1197.5 1088.9C1204.35 1088.36 1211.27 1088.09 1218.26 1088.09C1225.25 1088.09 1232.17 1088.36 1239.02 1088.9ZM1156.53 1095.4L1158.47 1103.59C1145.32 1106.76 1132.56 1110.96 1120.28 1116.1L1117.08 1108.32C1129.77 1103.02 1142.94 1098.68 1156.53 1095.4ZM1080.14 1127.35L1084.51 1134.53C1073.05 1141.62 1062.19 1149.6 1052.02 1158.37L1046.6 1151.97C1057.1 1142.92 1068.31 1134.68 1080.14 1127.35ZM1017.27 1181.57L1023.61 1187.04C1014.92 1197.3 1007.01 1208.25 999.974 1219.81L992.862 1215.4C1000.12 1203.47 1008.29 1192.16 1017.27 1181.57ZM974.003 1252.68L981.713 1255.9C976.622 1268.29 972.459 1281.16 969.311 1294.43L961.194 1292.47C964.444 1278.77 968.744 1265.47 974.003 1252.68ZM954.75 1333.81C954.218 1340.72 953.947 1347.7 953.947 1354.75C953.947 1361.8 954.218 1368.78 954.75 1375.69L963.071 1375.04C962.556 1368.35 962.293 1361.58 962.293 1354.75C962.293 1347.92 962.556 1341.15 963.071 1334.46L954.75 1333.81ZM961.194 1417.03L969.311 1415.07C972.459 1428.34 976.622 1441.21 981.713 1453.6L974.003 1456.83C968.744 1444.03 964.444 1430.74 961.194 1417.03ZM992.862 1494.1L999.974 1489.69C1007.01 1501.25 1014.92 1512.2 1023.61 1522.46L1017.27 1527.94C1008.29 1517.34 1000.12 1506.03 992.862 1494.1ZM1046.6 1557.53L1052.02 1551.13C1062.19 1559.9 1073.05 1567.88 1084.51 1574.98L1080.14 1582.15C1068.31 1574.82 1057.1 1566.58 1046.6 1557.53ZM1117.08 1601.18C1129.77 1606.48 1142.94 1610.82 1156.53 1614.1L1158.47 1605.91C1145.32 1602.74 1132.56 1598.54 1120.28 1593.4L1117.08 1601.18ZM1197.5 1620.6L1198.15 1612.21C1204.78 1612.73 1211.49 1612.99 1218.26 1612.99C1225.03 1612.99 1231.74 1612.73 1238.37 1612.21L1239.02 1620.6C1232.17 1621.14 1225.25 1621.41 1218.26 1621.41C1211.27 1621.41 1204.35 1621.14 1197.5 1620.6ZM1279.99 1614.1L1278.05 1605.91C1291.2 1602.74 1303.96 1598.54 1316.24 1593.4L1319.44 1601.18C1306.76 1606.48 1293.58 1610.82 1279.99 1614.1ZM1356.38 1582.15L1352.01 1574.98C1363.47 1567.88 1374.33 1559.9 1384.5 1551.13L1389.92 1557.53C1379.42 1566.58 1368.21 1574.82 1356.38 1582.15ZM1419.25 1527.94L1412.91 1522.46C1421.6 1512.2 1429.51 1501.25 1436.55 1489.69L1443.66 1494.1C1436.4 1506.03 1428.23 1517.34 1419.25 1527.94ZM1462.52 1456.83L1454.81 1453.6C1459.9 1441.21 1464.06 1428.34 1467.21 1415.07L1475.33 1417.03C1472.08 1430.74 1467.78 1444.03 1462.52 1456.83Z" fill="white"/>
<path d="M1274.39 1255.17H1171.32V1272.56H1274.39V1255.17Z" fill="white"/>
<path d="M1153.83 1297.66C1146.36 1297.66 1140.3 1303.79 1140.3 1311.34V1369.11C1140.3 1376.66 1146.36 1382.79 1153.83 1382.79H1291.88C1299.35 1382.79 1305.4 1376.66 1305.4 1369.11V1311.34C1305.4 1303.79 1299.35 1297.66 1291.88 1297.66H1153.83Z" fill="white"/>
<path d="M1137.41 1433.79C1137.41 1442.61 1144.48 1449.76 1153.19 1449.76C1161.9 1449.76 1168.97 1442.61 1168.97 1433.79C1168.97 1424.98 1161.9 1417.83 1153.19 1417.83C1144.48 1417.83 1137.41 1424.98 1137.41 1433.79Z" fill="white"/>
<path d="M1194.76 1469.52H1253.93V1443.45H1194.76V1469.52Z" fill="white"/>
<path d="M1276.74 1433.79C1276.74 1442.61 1283.81 1449.76 1292.52 1449.76C1301.23 1449.76 1308.3 1442.61 1308.3 1433.79C1308.3 1424.98 1301.23 1417.83 1292.52 1417.83C1283.81 1417.83 1276.74 1424.98 1276.74 1433.79Z" fill="white"/>
<path fill-rule="evenodd" clip-rule="evenodd" d="M1220.71 1562.68C1332.89 1562.68 1423.84 1470.68 1423.84 1357.18C1423.84 1243.69 1332.89 1151.68 1220.71 1151.68C1108.52 1151.68 1017.58 1243.69 1017.58 1357.18C1017.58 1470.68 1108.52 1562.68 1220.71 1562.68ZM1162.12 1228.15H1283.59C1316.46 1228.15 1343.1 1255.1 1343.1 1288.35V1434.76C1343.1 1462.97 1320.41 1485.93 1292.52 1485.93H1153.19C1125.3 1485.93 1102.61 1462.97 1102.61 1434.76V1288.35C1102.61 1255.1 1129.25 1228.15 1162.12 1228.15Z" fill="white"/>
<path d="M870.05 1588.35C791.004 1609.58 738.257 1621.31 738.257 1621.31C738.257 1621.31 663.488 969.058 808.609 772.74C953.73 576.423 1237.28 530.124 1441.95 669.33C1612.62 785.418 1674.53 993.854 1606.22 1173.74C1578.04 1200.22 1551.69 1224.85 1526.75 1247.81C1499.96 1172.57 1445.79 1110.28 1376.21 1072.87C1385.84 1048.46 1391.13 1021.87 1391.13 994.046C1391.13 875.205 1294.61 778.865 1175.54 778.865C1056.48 778.865 959.953 875.205 959.953 994.046C959.953 1042.43 975.949 1087.08 1002.95 1123.02C941.513 1181.38 903.219 1263.79 903.219 1355.12C903.219 1435.5 932.87 1508.95 981.849 1565.2C947.603 1573.43 910.688 1581.23 870.444 1588.86C870.312 1588.69 870.181 1588.52 870.05 1588.35Z" fill="url(#paint1_linear_6127_672)"/>
<path d="M1614.57 1184.64C1587.48 1212.39 1559.13 1238.96 1529.94 1264.31C1533.72 1277.48 1536.66 1290.91 1538.72 1304.53C1545.3 1347.96 1542.84 1392.29 1531.49 1434.74C1520.13 1477.18 1500.13 1516.82 1472.74 1551.17C1445.35 1585.53 1411.15 1613.86 1372.3 1634.39C1333.44 1654.92 1290.76 1667.2 1246.93 1670.47C1203.11 1673.75 1159.08 1667.93 1117.6 1653.4C1076.12 1638.87 1038.1 1615.94 1005.9 1586.03C1002.24 1582.63 998.661 1579.14 995.17 1575.58C950.621 1590.19 911.168 1599.56 879.185 1603.26C895.188 1625.18 913.293 1645.58 933.283 1664.15C976.239 1704.05 1026.98 1734.65 1082.32 1754.04C1137.65 1773.43 1196.4 1781.18 1254.88 1776.82C1313.36 1772.45 1370.3 1756.06 1422.14 1728.67C1473.99 1701.28 1519.61 1663.48 1556.16 1617.64C1592.71 1571.8 1619.4 1518.91 1634.55 1462.28C1649.69 1405.66 1652.98 1346.51 1644.2 1288.55C1638.76 1252.71 1628.79 1217.8 1614.57 1184.64Z" fill="white"/>
</g>
<defs>
<linearGradient id="paint0_linear_6127_672" x1="0" y1="0" x2="2367" y2="2367" gradientUnits="userSpaceOnUse">
<stop stop-color="#333333"/>
<stop offset="1" stop-color="#161616"/>
</linearGradient>
<linearGradient id="paint1_linear_6127_672" x1="1184" y1="589" x2="1184" y2="1778" gradientUnits="userSpaceOnUse">
<stop stop-color="#FFAE00"/>
<stop offset="1" stop-color="#FF5900"/>
</linearGradient>
<clipPath id="clip0_6127_672">
<rect width="2367" height="2367" fill="white"/>
</clipPath>
</defs>
</svg>
